<svg width="100" height="100" viewBox="0 0 100 100" fill="none" xmlns="http://www.w3.org/2000/svg">
<g clip-path="url(#clip0)">
<path d="M91.5458 31.6958C94.5584 37.206 96.1333 43.3867 96.125 49.6667C96.1266 56.2218 94.4072 62.6626 91.1387 68.3448C87.8702 74.027 83.1672 78.7515 77.5 82.0458L88.9417 48.9667C91.0792 43.625 91.7917 39.3458 91.7917 35.5542C91.7932 34.2641 91.7111 32.9753 91.5458 31.6958ZM63.8333 32.0583C65.2623 31.9881 66.6883 31.8658 68.1083 31.6917C70.1292 31.4292 69.8917 28.4625 67.875 28.5708C67.875 28.5708 61.7792 29.0375 57.875 29.0375C54.1792 29.0375 47.9792 28.5167 47.9792 28.5167C45.95 28.4167 45.6875 31.4875 47.725 31.5917C47.725 31.5917 49.5958 31.8083 51.6333 31.9042L57.4625 47.8958L49.2333 72.475L35.5917 31.9583C37.8458 31.85 39.875 31.6125 39.875 31.6125C41.9042 31.35 41.6667 28.3833 39.6458 28.5C39.6458 28.5 33.5833 28.9792 29.6667 28.9792C28.9708 28.9792 28.1458 28.95 27.2708 28.925C34.0542 18.9375 45.5917 12.2167 58.6667 12.2167C68.4208 12.2167 77.2958 15.9417 83.9625 22.05C83.8042 22.0417 83.6458 22.0167 83.475 22.0167C79.7958 22.0167 77.1833 25.225 77.1833 28.6667C77.1833 31.7542 78.9625 34.3708 80.8625 37.45C82.2917 39.9542 83.9542 43.1583 83.9542 47.7875C83.9542 50.9667 82.725 54.7125 81.1 59.8667L77.3667 72.3125L63.825 32L63.8333 32.0583ZM58.6667 87.1083C55.0845 87.1118 51.5204 86.6011 48.0833 85.5917L59.3208 52.9333L70.8333 84.4833C70.9208 84.6667 71.0083 84.8375 71.1042 85C67.1073 86.4016 62.9022 87.1173 58.6667 87.1167V87.1083ZM21.2083 49.6667C21.2023 44.4144 22.307 39.2202 24.45 34.425L42.3125 83.3792C35.9852 80.307 30.6504 75.5159 26.9183 69.5541C23.1862 63.5923 21.2074 56.7003 21.2083 49.6667ZM58.6667 8C35.6958 8 17 26.6958 17 49.6667C17 72.6375 35.6958 91.3333 58.6667 91.3333C81.6375 91.3333 100.333 72.6375 100.333 49.6667C100.333 26.6958 81.6375 8 58.6667 8Z" fill="#B84358"/>
</g>
<defs>
<clipPath id="clip0">
<rect width="100" height="100" fill="white"/>
</clipPath>
</defs>
</svg>
