<svg width="103" height="63" viewBox="0 0 103 63" fill="none" xmlns="http://www.w3.org/2000/svg">
<g clip-path="url(#clip0)">
<path d="M50.9186 62.8182C50.57 62.8182 50.2445 62.7255 49.9421 62.5632L46.85 60.7314C46.3849 60.4762 46.6174 60.3835 46.757 60.3371C47.3847 60.1285 47.5009 60.0819 48.1519 59.7112C48.2217 59.6646 48.3149 59.6879 48.3845 59.7342L50.7561 61.1487C50.849 61.1951 50.9653 61.1951 51.0349 61.1487L60.3118 55.7921C60.4047 55.7458 60.4514 55.6529 60.4514 55.5371V44.8472C60.4514 44.731 60.4047 44.6385 60.3118 44.592L51.0349 39.2586C50.9419 39.2121 50.8257 39.2121 50.7561 39.2586L41.4792 44.592C41.3862 44.6383 41.3396 44.7543 41.3396 44.847V55.5369C41.3396 55.6298 41.3862 55.7456 41.4792 55.7921L44.0135 57.2529C45.3853 57.9486 46.2455 57.137 46.2455 56.3254V45.7745C46.2455 45.6355 46.3617 45.4962 46.5245 45.4962H47.7102C47.8498 45.4962 47.9892 45.6122 47.9892 45.7745V56.3254C47.9892 58.1572 46.9894 59.224 45.2456 59.224C44.7109 59.224 44.2925 59.224 43.1066 58.6442L40.6654 57.2529C40.0609 56.9052 39.689 56.2558 39.689 55.5602V44.8702C39.689 44.1746 40.0609 43.5252 40.6654 43.1775L49.9421 37.8209C50.5235 37.4962 51.3141 37.4962 51.8953 37.8209L61.172 43.1775C61.7765 43.5252 62.1486 44.1746 62.1486 44.8702V55.5602C62.1486 56.2558 61.7765 56.9052 61.172 57.2529L51.8953 62.6096C51.5929 62.7488 51.2443 62.8182 50.9188 62.8182H50.9186ZM53.7784 55.4675C49.7098 55.4675 48.8727 53.6124 48.8727 52.0356C48.8727 51.8963 48.989 51.7573 49.1517 51.7573H50.3608C50.5002 51.7573 50.6164 51.85 50.6164 51.9892C50.8025 53.2181 51.3372 53.8211 53.8017 53.8211C55.7547 53.8211 56.592 53.3805 56.592 52.3369C56.592 51.734 56.3592 51.2936 53.3135 50.9921C50.7792 50.7369 49.1982 50.1805 49.1982 48.1631C49.1982 46.2847 50.7794 45.1716 53.4298 45.1716C56.4057 45.1716 57.8706 46.192 58.0567 48.4179C58.0567 48.4877 58.0333 48.5571 57.9869 48.6268C57.9402 48.6731 57.8706 48.7195 57.8008 48.7195H56.5918C56.4755 48.7195 56.3592 48.6268 56.3361 48.5108C56.057 47.2356 55.3363 46.818 53.4298 46.818C51.2908 46.818 51.0349 47.5602 51.0349 48.1165C51.0349 48.7891 51.3372 48.9977 54.2202 49.3687C57.08 49.7399 58.4286 50.2732 58.4286 52.2673C58.4053 54.308 56.7314 55.4675 53.7784 55.4675Z" fill="#B84358"/>
<path d="M22.1351 21.0091C22.1351 20.5918 21.9025 20.1973 21.5306 19.9887L11.6725 14.3307C11.5095 14.2378 11.3237 14.1915 11.1378 14.1682H11.0446C10.8588 14.1682 10.6727 14.2378 10.5099 14.3307L0.651875 19.9887C0.279713 20.1973 0.0473633 20.5916 0.0473633 21.0091L0.0706988 36.2208C0.0706988 36.4295 0.186974 36.6381 0.372854 36.731C0.558935 36.847 0.791285 36.847 0.954231 36.731L6.81327 33.3918C7.18523 33.1831 7.41778 32.7889 7.41778 32.3716V25.2526C7.41778 24.8352 7.65013 24.441 8.02229 24.2323L10.5099 22.7946C10.696 22.6786 10.9052 22.6321 11.1145 22.6321C11.3237 22.6321 11.5329 22.6786 11.6958 22.7946L14.1835 24.2323C14.5556 24.441 14.788 24.835 14.788 25.2526V32.3716C14.788 32.7889 15.0205 33.1831 15.3925 33.3918L21.2515 36.731C21.4376 36.847 21.67 36.847 21.856 36.731C22.0421 36.6381 22.1584 36.4295 22.1584 36.2208L22.1351 21.0091Z" fill="#B84358"/>
<path d="M69.5192 0.0696101C69.3333 -0.0232848 69.1008 -0.0232848 68.9378 0.0696101C68.7519 0.185578 68.6356 0.370967 68.6356 0.579629V15.6525C68.6356 15.7915 68.566 15.9306 68.4264 16.0235C68.287 16.0929 68.1474 16.0929 68.008 16.0235L65.5435 14.609C65.3628 14.5064 65.1585 14.4524 64.9505 14.4524C64.7426 14.4524 64.5383 14.5064 64.3576 14.609L54.4995 20.2902C54.1276 20.4989 53.895 20.8931 53.895 21.3104V32.6496C53.895 33.067 54.1276 33.4614 54.4995 33.6701L64.3576 39.3513C64.5383 39.4539 64.7426 39.5079 64.9505 39.5079C65.1585 39.5079 65.3628 39.4539 65.5435 39.3513L75.4016 33.6701C75.7735 33.4614 76.0061 33.0672 76.0061 32.6496V4.3827C76.0061 3.9421 75.7735 3.54805 75.4016 3.33919L69.5194 0.0696101H69.5192ZM68.6125 28.9164C68.6125 29.0324 68.566 29.125 68.4729 29.1714L65.1017 31.1192C65.0546 31.1421 65.0029 31.154 64.9505 31.154C64.8982 31.154 64.8465 31.1421 64.7994 31.1192L61.4282 29.1714C61.335 29.125 61.2886 29.0091 61.2886 28.9164V25.0206C61.2886 24.9047 61.335 24.812 61.4282 24.7656L64.7994 22.8176C64.8465 22.7947 64.8982 22.7828 64.9505 22.7828C65.0029 22.7828 65.0546 22.7947 65.1017 22.8176L68.4729 24.7656C68.566 24.8118 68.6125 24.9279 68.6125 25.0206V28.9164Z" fill="#B84358"/>
<path d="M102.325 24.9279C102.697 24.7193 102.906 24.325 102.906 23.9075V21.1481C102.906 20.7308 102.674 20.3365 102.325 20.1279L92.5364 14.4699C92.3558 14.3673 92.1515 14.3134 91.9436 14.3134C91.7357 14.3134 91.5314 14.3673 91.3508 14.4699L81.4927 20.151C81.1205 20.3596 80.8882 20.7539 80.8882 21.1714V32.5106C80.8882 32.9279 81.1205 33.3222 81.4927 33.5308L91.281 39.0961C91.6531 39.3048 92.0947 39.3048 92.4435 39.0961L98.3721 35.8036C98.5582 35.7107 98.6745 35.5021 98.6745 35.2934C98.6745 35.0848 98.5582 34.8761 98.3721 34.7832L88.4676 29.102C88.2817 28.9862 88.1655 28.8006 88.1655 28.5919V25.0441C88.1655 24.8354 88.2817 24.6268 88.4676 24.5339L91.56 22.7715C91.6505 22.7147 91.7553 22.6845 91.8622 22.6845C91.9692 22.6845 92.074 22.7147 92.1645 22.7715L95.2566 24.5339C95.4427 24.6498 95.559 24.8352 95.559 25.0441V27.8267C95.559 28.0354 95.6753 28.244 95.8612 28.3367C96.0472 28.4527 96.2796 28.4527 96.4657 28.3367L102.325 24.9279Z" fill="#B84358"/>
<path d="M91.7926 24.3946C91.8271 24.372 91.8675 24.3599 91.9088 24.3599C91.9501 24.3599 91.9904 24.372 92.0249 24.3946L93.9083 25.4845C93.9781 25.5307 94.0246 25.6003 94.0246 25.6932V27.8729C94.0246 27.9656 93.9781 28.0352 93.9083 28.0816L92.0249 29.1714C91.9904 29.1941 91.9501 29.2061 91.9088 29.2061C91.8675 29.2061 91.8271 29.1941 91.7926 29.1714L89.9092 28.0816C89.8394 28.0352 89.793 27.9656 89.793 27.8729V25.6932C89.793 25.6003 89.8394 25.5307 89.9092 25.4845L91.7926 24.3946Z" fill="#B84358"/>
<mask id="mask0" mask-type="alpha" maskUnits="userSpaceOnUse" x="27" y="14" width="22" height="26">
<path d="M38.6193 14.5163C38.4386 14.4137 38.2343 14.3598 38.0264 14.3598C37.8186 14.3598 37.6143 14.4137 37.4336 14.5163L27.6453 20.1508C27.2732 20.3594 27.064 20.7537 27.064 21.171V32.4641C27.064 32.8814 27.2965 33.2756 27.6453 33.4843L37.4336 39.1192C37.6143 39.2217 37.8186 39.2757 38.0264 39.2757C38.2343 39.2757 38.4386 39.2217 38.6193 39.1192L48.4078 33.4843C48.7797 33.2756 48.9891 32.8814 48.9891 32.4641V21.1712C48.9891 20.7539 48.7564 20.3596 48.4078 20.151L38.6193 14.5163Z" fill="white"/>
</mask>
<g mask="url(#mask0)">
<path d="M38.6193 14.5163C38.4386 14.4137 38.2343 14.3598 38.0264 14.3598C37.8186 14.3598 37.6143 14.4137 37.4336 14.5163L27.6453 20.1508C27.2732 20.3594 27.064 20.7537 27.064 21.171V32.4641C27.064 32.8814 27.2965 33.2756 27.6453 33.4843L37.4336 39.1192C37.6143 39.2217 37.8186 39.2757 38.0264 39.2757C38.2343 39.2757 38.4386 39.2217 38.6193 39.1192L48.4078 33.4843C48.7797 33.2756 48.9891 32.8814 48.9891 32.4641V21.1712C48.9891 20.7539 48.7564 20.3596 48.4078 20.151L38.6193 14.5163Z" fill="#B84358"/>
<path d="M48.4311 20.151L38.5964 14.5163C38.4998 14.4676 38.3985 14.4287 38.2941 14.4003L27.2734 33.2297C27.3647 33.3408 27.475 33.435 27.5991 33.508L37.4339 39.1428C37.7129 39.3052 38.0384 39.3515 38.3405 39.2586L48.687 20.3831C48.6172 20.2904 48.5241 20.2206 48.4311 20.1512V20.151Z" fill="#B84358"/>
<path fill-rule="evenodd" clip-rule="evenodd" d="M48.4541 33.4845C48.7331 33.3222 48.9423 33.0439 49.0355 32.7425L38.247 14.377C37.968 14.3307 37.6656 14.3538 37.4101 14.5161L27.645 20.1279L38.1772 39.2817C38.3304 39.2567 38.4791 39.2099 38.619 39.1427L48.4539 33.4847L48.4541 33.4845Z" fill="#B84358"/>
<path fill-rule="evenodd" clip-rule="evenodd" d="M48.4545 33.4845L38.6429 39.1194C38.5044 39.1898 38.3551 39.2368 38.2012 39.2584L38.3873 39.6063L49.2683 33.3224V33.1831L48.9892 32.7193C48.9428 33.0439 48.7335 33.3222 48.4545 33.4845Z" fill="#B84358"/>
<path fill-rule="evenodd" clip-rule="evenodd" d="M48.4545 33.4845L38.6429 39.1194C38.5044 39.1898 38.3551 39.2368 38.2012 39.2584L38.3873 39.6063L49.2683 33.3224V33.1831L48.9892 32.7193C48.9428 33.0439 48.7335 33.3222 48.4545 33.4845Z" fill="#B84358"/>
</g>
</g>
<defs>
<clipPath id="clip0">
<rect width="103" height="63" fill="white"/>
</clipPath>
</defs>
</svg>
