<svg width="88" height="88" viewBox="0 0 88 88" fill="none" xmlns="http://www.w3.org/2000/svg">
<path d="M11 11H77V77H11V11ZM28.3433 66.1467C29.81 69.2633 32.7067 71.83 37.6567 71.83C43.1567 71.83 46.9333 68.8967 46.9333 62.48V41.2867H40.7V62.3333C40.7 65.4867 39.4167 66.2933 37.4 66.2933C35.2733 66.2933 34.3933 64.8267 33.4033 63.1033L28.3433 66.1467ZM50.27 65.4867C52.1033 69.08 55.8067 71.83 61.6 71.83C67.4667 71.83 71.8667 68.7867 71.8667 63.1767C71.8667 58.0067 68.8967 55.6967 63.6167 53.4233L62.0767 52.7633C59.4 51.6267 58.2633 50.8567 58.2633 49.0233C58.2633 47.52 59.4 46.3467 61.2333 46.3467C62.9933 46.3467 64.1667 47.1167 65.23 49.0233L70.0333 45.8333C68.0167 42.3133 65.1567 40.9567 61.2333 40.9567C55.6967 40.9567 52.14 44.4767 52.14 49.1333C52.14 54.1933 55.11 56.5767 59.5833 58.4833L61.1233 59.1433C63.9833 60.39 65.67 61.16 65.67 63.2867C65.67 65.0467 64.02 66.33 61.4533 66.33C58.41 66.33 56.65 64.7533 55.33 62.5533L50.27 65.4867Z" fill="#B84358"/>
</svg>
