<svg width="98" height="101" viewBox="0 0 98 101" fill="none" xmlns="http://www.w3.org/2000/svg">
<path d="M91.2149 3.26923C90.6119 3.26923 90.0088 3.73077 90.0088 4.5V26.0385C90.0088 26.6539 90.4611 27.2692 91.2149 27.2692C91.9688 27.2692 92.4211 26.8077 92.4211 26.0385V4.5C92.4211 3.73077 91.818 3.26923 91.2149 3.26923Z" fill="#C4A15E"/>
<path d="M91.2149 29.4231C90.6119 29.4231 90.0088 29.8846 90.0088 30.6539V33.7308C90.0088 34.3462 90.4611 34.9615 91.2149 34.9615C91.9688 34.9615 92.4211 34.5 92.4211 33.7308V30.6539C92.4211 29.8846 91.818 29.4231 91.2149 29.4231Z" fill="#C4A15E"/>
<path d="M12.815 87.8846H11.0058V85.8846C11.0058 85.2692 10.5535 84.6538 9.79966 84.6538C9.04582 84.6538 8.59351 85.1154 8.59351 85.8846V87.8846H6.78428C6.1812 87.8846 5.57812 88.3461 5.57812 89.1154C5.57812 89.8846 6.03043 90.3462 6.78428 90.3462H8.74428V92.3462C8.74428 92.9615 9.19659 93.5769 9.95043 93.5769C10.7043 93.5769 11.1566 93.1154 11.1566 92.3462V90.3462H13.1166C13.7197 90.3462 14.3227 89.8846 14.3227 89.1154C14.3227 88.3461 13.4181 87.8846 12.815 87.8846Z" fill="#C4A15E"/>
<path d="M86.6918 40.1923H84.7318V38.1923C84.7318 37.5769 84.2795 36.9615 83.5256 36.9615C82.7718 36.9615 82.3195 37.4231 82.3195 38.1923V40.1923H80.3595C79.7564 40.1923 79.1533 40.6539 79.1533 41.4231C79.1533 42.1923 79.6056 42.6538 80.3595 42.6538H82.3195V44.6538C82.3195 45.2692 82.7718 45.8846 83.5256 45.8846C84.2795 45.8846 84.7318 45.4231 84.7318 44.6538V42.6538H86.6918C87.2949 42.6538 87.8979 42.1923 87.8979 41.4231C87.8979 40.6539 87.2949 40.1923 86.6918 40.1923Z" fill="#C4A15E"/>
<path d="M36.9381 10.1923H58.0458C58.6489 10.1923 59.2519 9.73077 59.2519 8.96154C59.2519 8.19231 58.7996 7.73077 58.0458 7.73077H36.9381C36.335 7.73077 35.7319 8.19231 35.7319 8.96154C35.7319 9.73077 36.335 10.1923 36.9381 10.1923Z" fill="#C4A15E"/>
<path d="M48.9999 84.8077C46.7383 84.8077 44.7783 86.6538 44.7783 89.1154C44.7783 91.5769 46.5875 93.4231 48.9999 93.4231C51.4122 93.4231 53.2214 91.5769 53.2214 89.1154C53.2214 86.6538 51.2614 84.8077 48.9999 84.8077ZM48.9999 90.9615C47.9445 90.9615 47.0399 90.0385 47.0399 88.9615C47.0399 87.8846 47.9445 86.9615 48.9999 86.9615C50.0552 86.9615 50.9599 87.8846 50.9599 88.9615C50.9599 90.0385 50.0552 90.9615 48.9999 90.9615Z" fill="#C4A15E"/>
<path d="M71.6152 34.6539C72.369 34.6539 73.2736 34.8077 74.0275 34.9615C74.1782 34.9615 74.329 34.9615 74.4798 34.9615H74.6305C75.2336 34.9615 75.8367 34.5 75.8367 33.7308V20.9615V2.5C75.8367 1.88462 75.3844 1.26923 74.6305 1.26923H20.3536C19.7505 1.26923 19.1475 1.73077 19.1475 2.5V97.8846C19.1475 98.5 19.5998 99.1154 20.3536 99.1154H74.6305C75.2336 99.1154 75.8367 98.6538 75.8367 97.8846V64.0385V51.2692C75.8367 50.6539 75.3844 50.0385 74.6305 50.0385H74.4798C74.329 50.0385 74.1782 50.0385 74.0275 50.0385C73.2736 50.3462 72.5198 50.3462 71.6152 50.3462C67.2428 50.3462 63.6244 46.6539 63.6244 42.1923C63.6244 37.7308 67.2428 34.6539 71.6152 34.6539ZM53.5228 30.3462L55.7844 34.8077C55.4828 35.5769 55.1813 36.3462 54.8798 37.1154L50.2059 38.6538C49.7536 38.8077 49.4521 39.2692 49.4521 39.7308V45.8846C49.4521 46.3462 49.7536 46.8077 50.2059 46.9615L54.8798 48.5C55.1813 49.2692 55.4828 50.0385 55.7844 50.8077L53.5228 55.2692C53.3721 55.7308 53.3721 56.1923 53.6736 56.6539L57.8952 60.9615C58.1967 61.2692 58.7998 61.4231 59.2521 61.1154L63.6244 58.8077C64.3782 59.1154 65.1321 59.4231 65.8859 59.7308L67.3936 64.5C67.5444 64.9615 67.9967 65.2692 68.449 65.2692H73.2736V78.3462H61.8152V74.5C61.8152 74.0385 61.5136 73.5769 61.0613 73.4231L57.2921 72.3462C57.1413 71.7308 56.8398 71.2692 56.689 70.6538L58.4982 67.1154C58.649 66.6538 58.649 66.1923 58.3475 65.7308L54.8798 62.1923C54.5782 61.8846 53.9752 61.7308 53.5228 62.0385L50.0552 63.8846C49.6028 63.5769 48.9998 63.4231 48.3967 63.2692L47.1905 59.4231C47.0398 58.9615 46.5875 58.6539 46.1352 58.6539H41.1598C40.7075 58.6539 40.2552 58.9615 40.1044 59.4231L38.8982 63.2692C38.2952 63.4231 37.8428 63.7308 37.2398 63.8846L33.6213 62.0385C33.169 61.8846 32.7167 61.8846 32.2644 62.1923L28.7967 65.7308C28.4952 66.0385 28.3444 66.6538 28.6459 67.1154L30.4552 70.6538C30.1536 71.1154 30.0028 71.7308 29.8521 72.3462L26.0828 73.5769C25.6305 73.7308 25.329 74.1923 25.329 74.6539V78.5H21.5598V16.3462H73.5752V20.1923H68.7505C68.2982 20.1923 67.8459 20.5 67.6952 20.9615L66.1875 25.7308C65.4336 26.0385 64.6798 26.3462 63.9259 26.6538L59.5536 24.3462C59.1013 24.1923 58.649 24.1923 58.1967 24.5L53.9752 28.8077C53.3721 29.2692 53.3721 29.8846 53.5228 30.3462ZM51.8644 78.6538C51.8644 78.1923 52.0152 77.7308 52.0152 77.2692C52.0152 72.5 48.2459 68.6538 43.5721 68.6538C38.8982 68.6538 35.129 72.5 35.129 77.2692C35.129 77.7308 35.129 78.1923 35.2798 78.6538H27.5905V75.5769L31.0582 74.3462C31.3598 74.1923 31.6613 73.8846 31.8121 73.5769C32.1136 72.6538 32.4152 71.8846 32.7167 71.2692C32.8675 70.9615 32.8675 70.5 32.7167 70.1923L31.0582 66.8077L33.3198 64.5L36.6367 66.1923C36.9382 66.3462 37.3905 66.3462 37.6921 66.1923C38.4459 65.7308 39.1998 65.4231 39.9536 65.2692C40.2552 65.1154 40.5567 64.9615 40.7075 64.5L41.9136 60.9615H45.2305L46.4367 64.5C46.5875 64.8077 46.889 65.1154 47.1905 65.2692C48.0952 65.5769 48.849 65.8846 49.4521 66.1923C49.7536 66.3462 50.2059 66.3462 50.5075 66.1923L53.8244 64.5L56.0859 66.8077L54.4275 70.1923C54.2767 70.5 54.2767 70.9615 54.4275 71.2692C54.8798 72.0385 55.1813 72.8077 55.3321 73.5769C55.4828 73.8846 55.7844 74.1923 56.0859 74.3462L59.5536 75.5769V78.6538H51.8644ZM73.5752 4.03846V14.0385H21.5598V4.03846H73.5752ZM21.5598 97.1154V80.9615H36.6367C37.089 80.9615 37.3905 80.6539 37.5413 80.3462C37.6921 80.0385 37.6921 79.7308 37.6921 79.4231C37.3905 78.8077 37.3905 78.0385 37.3905 77.2692C37.3905 73.7308 40.2552 70.9615 43.5721 70.9615C46.889 70.9615 49.7536 73.8846 49.7536 77.2692C49.7536 78.0385 49.6028 78.6538 49.4521 79.4231C49.1505 80.1923 49.7536 80.9615 50.5075 80.9615H73.5752V97.1154H21.5598ZM61.5136 42.8077C61.5136 48.5 66.0367 53.2692 71.7659 53.2692C72.369 53.2692 72.9721 53.1154 73.5752 53.1154V63.2692H69.3536L67.8459 58.8077C67.6952 58.5 67.3936 58.1923 67.0921 58.0385C66.0367 57.7308 65.1321 57.2692 64.2275 56.8077C63.9259 56.6538 63.4736 56.6538 63.1721 56.8077L58.9505 58.9615L55.7844 55.7308L57.8952 51.4231C58.0459 51.1154 58.0459 50.6539 57.8952 50.3462C57.4429 49.4231 56.9905 48.3462 56.689 47.4231C56.5382 47.1154 56.2367 46.8077 55.9352 46.6539L51.5628 45.1154V40.5L55.9352 38.9615C56.2367 38.8077 56.5382 38.5 56.689 38.1923C56.9905 37.1154 57.4429 36.0385 57.8952 35.2692C58.0459 34.9615 58.0459 34.5 57.8952 34.1923L55.7844 29.8846L58.9505 26.6538L63.1721 28.8077C63.4736 28.9615 63.9259 28.9615 64.2275 28.8077C65.1321 28.3462 66.0367 27.8846 67.0921 27.5769C67.3936 27.4231 67.6952 27.2692 67.8459 26.8077L69.3536 22.1923H73.4244V32.3462C72.8213 32.1923 72.2182 32.1923 71.6152 32.1923C66.0367 32.3462 61.5136 37.1154 61.5136 42.8077Z" fill="#C4A15E"/>
</svg>
