<svg width="100" height="100" viewBox="0 0 100 100" fill="none" xmlns="http://www.w3.org/2000/svg">
<path d="M54.5833 14.5833L57.4999 19.1667L60.4166 14.5833V20.8333H64.5833V8.33334H60.4166L57.4999 12.9167L54.9999 8.33334H50.4166V20.8333H54.5833V14.5833ZM76.6666 20.8333V16.6667H70.8333V8.33334H66.6666V20.8333H76.6666ZM40.8333 20.8333H44.9999V12.5H48.7499V8.33334H37.0833V12.5H40.8333V20.8333ZM27.4999 16.6667H31.2499V20.8333H35.4166V8.33334H31.2499V12.5H27.4999V8.33334H23.3333V20.8333H27.4999V16.6667ZM20.8333 25L25.8333 85L49.9999 91.6667L74.1666 85L79.1666 25H20.8333ZM67.9166 44.1667H39.5833L40.4166 51.6667H67.0833L64.9999 74.5833L49.9999 78.75L34.9999 74.5833L33.7499 62.5H41.2499L41.6666 68.75L49.9999 70.8333L58.3333 68.75L59.1666 59.1667H33.3333L31.2499 37.0833H68.7499L67.9166 44.1667Z" fill="#B84358"/>
</svg>
