<svg width="100" height="100" viewBox="0 0 100 100" fill="none" xmlns="http://www.w3.org/2000/svg">
<path d="M79.6166 51.5667C79.1277 51.0083 78.6124 50.4486 78.0708 49.8875C78.4486 49.4875 78.8152 49.0889 79.1708 48.6917C85.8583 41.175 88.6833 33.6333 86.0666 29.1042C83.5583 24.7583 76.0958 23.4625 66.75 25.2792C65.8305 25.4597 64.9152 25.6625 64.0041 25.8875C63.8291 25.2875 63.6444 24.6903 63.4499 24.0958C60.2791 14.5417 55.1583 8.32918 49.9249 8.33335C44.9083 8.33335 40.0583 14.1542 36.9625 23.1583C36.6569 24.0472 36.375 24.9417 36.1166 25.8417C35.5083 25.6917 34.8972 25.5528 34.2833 25.425C24.4249 23.4042 16.4874 24.7375 13.8749 29.275C11.3708 33.6208 13.9874 40.7333 20.2416 47.9083C20.8638 48.6167 21.5027 49.3111 22.1583 49.9917C21.3833 50.7833 20.6541 51.5792 19.9708 52.3708C13.8666 59.4458 11.3999 66.4375 13.8999 70.7667C16.4833 75.2417 24.3083 76.7042 33.8375 74.8292C34.6097 74.6764 35.3777 74.5042 36.1416 74.3125C36.4194 75.2875 36.7263 76.2556 37.0625 77.2167C40.1458 86.0375 44.9666 91.6667 49.9666 91.6667C55.1333 91.6667 60.3083 85.6125 63.4458 76.4208C63.6958 75.6958 63.9249 74.9417 64.1499 74.1667C65.1361 74.4111 66.1291 74.6278 67.1291 74.8167C76.3083 76.5542 83.5958 75.1917 86.0916 70.8583C88.6708 66.3792 86.0083 58.8708 79.6166 51.5667ZM16.9583 31.05C18.5666 28.2583 25.0541 27.1667 33.5666 28.9167C34.1111 29.0278 34.6652 29.1528 35.2291 29.2917C34.397 32.9682 33.8096 36.6958 33.4708 40.45C30.401 42.6086 27.4741 44.9635 24.7083 47.5C24.0999 46.8695 23.5069 46.2236 22.9291 45.5625C17.5666 39.4208 15.45 33.6708 16.9583 31.05ZM33.1541 54.9167C31.0291 53.3042 29.0499 51.6542 27.2541 49.9958C29.0458 48.3458 31.0249 46.7042 33.1499 45.0958C33.0722 46.732 33.0347 48.3695 33.0374 50.0083C33.0374 51.6472 33.0763 53.2833 33.1541 54.9167ZM33.1541 71.3333C29.5425 72.1377 25.8138 72.2704 22.1541 71.725C21.1508 71.6466 20.1743 71.3631 19.2849 70.8923C18.3955 70.4214 17.6122 69.7731 16.9833 68.9875C15.4625 66.3625 17.4458 60.7458 22.6666 54.6958C23.3222 53.9375 23.9999 53.1986 24.6999 52.4792C27.467 55.0312 30.3998 57.3975 33.4791 59.5625C33.8213 63.3642 34.4143 67.139 35.2541 70.8625C34.5597 71.0375 33.8583 71.1958 33.1499 71.3375L33.1541 71.3333ZM62.7374 37.8375C61.3402 36.957 59.9263 36.1056 58.4958 35.2833C57.0847 34.4722 55.6583 33.6903 54.2166 32.9375C56.6875 31.9 59.1166 31.0125 61.4624 30.2917C62.014 32.7839 62.4396 35.3024 62.7374 37.8375ZM40.3333 24.3125C42.9833 16.6042 46.9083 11.8958 49.9333 11.8958C53.1541 11.8917 57.3374 16.9708 60.0749 25.2167C60.2527 25.7556 60.4194 26.2972 60.5749 26.8417C56.9813 27.9554 53.4653 29.3056 50.0499 30.8833C46.6459 29.2862 43.1379 27.9206 39.5499 26.7958C39.7916 25.9625 40.0527 25.1347 40.3333 24.3125ZM38.6666 30.2458C41.1128 31.0158 43.5187 31.9086 45.875 32.9208C42.9527 34.4264 40.1083 36.0667 37.3416 37.8417C37.6749 35.1833 38.1208 32.6375 38.6666 30.2458ZM37.3458 62.1625C38.7263 63.0486 40.1277 63.9 41.5499 64.7167C42.9999 65.55 44.468 66.35 45.9541 67.1167C43.5809 68.164 41.1555 69.0888 38.6874 69.8875C38.114 67.3374 37.6662 64.7607 37.3458 62.1667V62.1625ZM60.0791 75.2708C58.9706 78.8001 57.222 82.0953 54.9208 84.9917C54.3526 85.822 53.6202 86.5269 52.7688 87.063C51.9174 87.5991 50.9651 87.9548 49.9708 88.1083C46.9333 88.1083 43.0624 83.5875 40.4291 76.0417C40.118 75.15 39.8319 74.25 39.5708 73.3417C43.1758 72.1788 46.6977 70.7728 50.1124 69.1333C53.5569 70.7239 57.102 72.0865 60.7249 73.2125C60.5249 73.9042 60.3097 74.5903 60.0791 75.2708ZM61.5874 69.7542C59.2166 69.0208 56.7541 68.1167 54.2458 67.0625C55.6597 66.3208 57.0833 65.5361 58.5166 64.7083C59.9888 63.8583 61.4222 62.9875 62.8166 62.0958C62.5381 64.668 62.1279 67.2241 61.5874 69.7542ZM63.4499 49.9917C63.4499 52.5222 63.3708 55.05 63.2124 57.575C61.1583 58.9667 58.9916 60.325 56.7374 61.625C54.4874 62.9208 52.2666 64.1125 50.0833 65.1917C47.7861 64.0917 45.5333 62.9056 43.3249 61.6333C41.1305 60.3695 38.9861 59.0236 36.8916 57.5958C36.6972 55.0681 36.6 52.5375 36.6 50.0042C36.6 47.4736 36.6944 44.9445 36.8833 42.4167C41.0719 39.557 45.4705 37.0178 50.0416 34.8208C52.3083 35.9236 54.5347 37.1056 56.7208 38.3667C58.9152 39.6278 61.068 40.9597 63.1791 42.3625C63.3597 44.9014 63.4499 47.4445 63.4499 49.9917ZM67.4333 28.7708C75.4416 27.2167 81.4749 28.2625 82.9874 30.8833C84.5999 33.675 82.2916 39.8333 76.5125 46.325C76.193 46.6833 75.8624 47.0431 75.5208 47.4042C72.7061 44.8597 69.7214 42.5098 66.5874 40.3708C66.2718 36.6581 65.7081 32.9707 64.8999 29.3333C65.7611 29.1222 66.6055 28.9347 67.4333 28.7708ZM66.8916 44.9583C69.0064 46.5019 71.0397 48.1541 72.9833 49.9083C71.0487 51.6907 69.0224 53.3708 66.9124 54.9417C66.9763 53.2917 67.0083 51.6417 67.0083 49.9917C67.0083 48.3139 66.9694 46.6361 66.8916 44.9583ZM83.0125 69.0792C81.4958 71.7083 75.6458 72.8042 67.7916 71.3208C66.8916 71.1514 65.9694 70.9486 65.0249 70.7125C65.8136 67.0281 66.3523 63.2946 66.6374 59.5375C69.7658 57.3626 72.7409 54.975 75.5416 52.3917C76.0333 52.9 76.4999 53.4056 76.9416 53.9083C79.446 56.6316 81.4276 59.7926 82.7874 63.2333C83.2227 64.1406 83.4672 65.1275 83.5059 66.1329C83.5446 67.1384 83.3766 68.1412 83.0125 69.0792ZM46.2666 43.4917C44.9921 44.2276 43.9644 45.325 43.3135 46.6449C42.6626 47.9649 42.4177 49.4482 42.6098 50.9074C42.8019 52.3665 43.4223 53.736 44.3927 54.8425C45.363 55.9491 46.6397 56.7431 48.0612 57.1241C49.4828 57.5051 50.9854 57.4561 52.3791 56.9831C53.7728 56.5102 54.9949 55.6347 55.891 54.4672C56.7871 53.2997 57.3169 51.8927 57.4135 50.4242C57.51 48.9556 57.1689 47.4914 56.4333 46.2167C55.9447 45.3701 55.2942 44.6281 54.5189 44.0329C53.7435 43.4378 52.8585 43.0012 51.9144 42.7482C50.9703 42.4951 49.9856 42.4306 49.0166 42.5581C48.0475 42.6857 47.1131 43.0029 46.2666 43.4917Z" fill="#B84358"/>
</svg>
