<svg width="120" height="120" viewBox="0 0 120 120" fill="none" xmlns="http://www.w3.org/2000/svg">
<path d="M28.3148 31.2754H50.948V34.2554H30.3895V56.6817H49.7222V59.6613H30.3895V84.2833H51.1838V87.2629H28.3148V31.2754ZM52.9758 31.2754H55.3805L66.0368 55.8975L76.9289 31.275L91.744 0L67.4041 58.4853L79.9467 87.2629H77.4476L66.0368 61.0728L54.5787 87.2629H52.1269L64.7637 58.485L52.9755 31.2754H52.9758ZM80.8425 34.2554V31.275H106.635V34.255H94.7524V87.2625H92.6777V34.2554H80.8425ZM0 31.275H2.59336L38.3543 119.915L23.5763 87.2625L2.16891 35.5097L2.07469 87.2633H0V31.275ZM106.426 83.3834C106.002 83.3834 105.684 82.8399 105.684 82.1365C105.684 81.4338 106.002 80.8895 106.426 80.8895C106.855 80.8895 107.168 81.4334 107.168 82.1365C107.168 82.8395 106.855 83.3834 106.426 83.3834ZM108.465 80.103H109.575C109.59 81.0988 110.029 81.7684 110.675 81.7684C111.396 81.7684 111.805 81.0487 111.805 79.7012V71.1642H112.935V79.7093C112.935 82.1365 112.088 83.5345 110.685 83.5345C109.368 83.5345 108.465 82.1784 108.465 80.1026V80.103ZM114.414 79.9943H115.534C115.63 81.1407 116.306 81.8686 117.28 81.8686C118.189 81.8686 118.855 81.0902 118.855 80.0191C118.855 79.0987 118.431 78.5462 117.467 78.1696L116.528 77.7931C115.211 77.2822 114.611 76.2278 114.611 74.4536C114.611 72.3029 115.67 70.8715 117.26 70.8715C118.738 70.8715 119.818 72.3025 119.884 74.3364H118.784C118.678 73.2233 118.092 72.5284 117.245 72.5284C116.352 72.5284 115.756 73.24 115.756 74.3278C115.756 75.1897 116.14 75.6839 117.088 76.0519L117.891 76.3784C119.384 76.9561 120 77.9604 120 79.7765C120 82.0864 118.92 83.5345 117.195 83.5345C115.58 83.5345 114.495 82.1532 114.414 79.9939V79.9943Z" fill="#B84358"/>
</svg>
