<svg width="107" height="85" viewBox="0 0 107 85" fill="none" xmlns="http://www.w3.org/2000/svg">
<g clip-path="url(#clip0)">
<path d="M96.3002 81.6569H69.9617C69.3032 81.6569 68.6448 82.0446 68.6448 82.6908C68.6448 83.3369 69.1386 83.7246 69.9617 83.7246H96.3002C96.9586 83.7246 97.6171 83.3369 97.6171 82.6908C97.6171 82.0446 96.9586 81.6569 96.3002 81.6569Z" fill="#C4A15E"/>
<path d="M106.177 81.6569H102.885C102.226 81.6569 101.568 82.0446 101.568 82.6908C101.568 83.3369 102.062 83.7246 102.885 83.7246H106.177C106.836 83.7246 107.494 83.3369 107.494 82.6908C107.494 82.0446 106.836 81.6569 106.177 81.6569Z" fill="#C4A15E"/>
<path d="M50.2078 8.64154H71.6078C72.2662 8.64154 72.9247 8.25385 72.9247 7.60769C72.9247 6.96154 72.4309 6.57384 71.6078 6.57384H50.2078C49.5493 6.57384 48.8909 6.96154 48.8909 7.60769C48.8909 8.25385 49.5493 8.64154 50.2078 8.64154Z" fill="#C4A15E"/>
<path d="M78.1924 8.64154H79.8386C80.497 8.64154 81.1555 8.25385 81.1555 7.60769C81.1555 6.96154 80.6616 6.57384 79.8386 6.57384H78.1924C77.5339 6.57384 76.8755 6.96154 76.8755 7.60769C76.8755 8.25385 77.5339 8.64154 78.1924 8.64154Z" fill="#C4A15E"/>
<path d="M0.823271 6.05692H2.96327V7.73692C2.96327 8.25385 3.45712 8.77077 4.28019 8.77077C5.10327 8.77077 5.59712 8.38308 5.59712 7.73692V6.05692H7.73712C8.39558 6.05692 9.05404 5.66923 9.05404 5.02308C9.05404 4.37692 8.06635 4.11846 7.40789 4.11846H5.4325V2.43846C5.4325 1.92154 4.93866 1.40462 4.11558 1.40462C3.2925 1.40462 2.96327 1.92154 2.96327 2.43846V4.11846H0.823271C0.164809 4.11846 -0.493652 4.50616 -0.493652 5.15231C-0.493652 5.79846 0.164809 6.05692 0.823271 6.05692Z" fill="#C4A15E"/>
<path d="M104.202 77.3923V12.7769C104.202 12.26 103.708 11.7431 102.885 11.7431H0.823271C0.164809 11.7431 -0.493652 12.1308 -0.493652 12.7769V54.1308C-0.493652 54.6477 0.000193805 55.1646 0.823271 55.1646C1.64635 55.1646 2.14019 54.7769 2.14019 54.1308V24.1492H101.732V76.4877H2.14019V61.8846C2.14019 61.3677 1.64635 60.8508 0.823271 60.8508C0.000193805 60.8508 -0.493652 61.2385 -0.493652 61.8846V77.3923C-0.493652 77.9092 0.000193805 78.4262 0.823271 78.4262H102.885C103.543 78.4262 104.202 77.9092 104.202 77.3923ZM2.14019 22.2108V13.8108H35.8863V22.2108H2.14019ZM38.3556 22.2108V13.8108H101.732V22.2108H38.3556Z" fill="#C4A15E"/>
<path d="M96.3 73.2569C96.9585 73.2569 97.617 72.8692 97.617 72.2231V28.2846C97.617 27.7677 97.1231 27.2508 96.3 27.2508H7.40774C6.74928 27.2508 6.09082 27.6385 6.09082 28.2846V72.2231C6.09082 72.74 6.58467 73.2569 7.40774 73.2569H96.3ZM8.72467 29.3185H95.1477V71.3185H8.72467V29.3185Z" fill="#C4A15E"/>
<path d="M10.6999 19.2385C11.609 19.2385 12.346 18.6599 12.346 17.9462C12.346 17.2324 11.609 16.6538 10.6999 16.6538C9.79072 16.6538 9.05371 17.2324 9.05371 17.9462C9.05371 18.6599 9.79072 19.2385 10.6999 19.2385Z" fill="#C4A15E"/>
<path d="M18.9308 19.2385C19.84 19.2385 20.577 18.6599 20.577 17.9462C20.577 17.2324 19.84 16.6538 18.9308 16.6538C18.0217 16.6538 17.2847 17.2324 17.2847 17.9462C17.2847 18.6599 18.0217 19.2385 18.9308 19.2385Z" fill="#C4A15E"/>
<path d="M27.1615 19.2385C28.0707 19.2385 28.8077 18.6599 28.8077 17.9462C28.8077 17.2324 28.0707 16.6538 27.1615 16.6538C26.2524 16.6538 25.5154 17.2324 25.5154 17.9462C25.5154 18.6599 26.2524 19.2385 27.1615 19.2385Z" fill="#C4A15E"/>
<path d="M94.6539 17.0415H45.2693C44.6109 17.0415 43.9524 17.4292 43.9524 18.0754C43.9524 18.7215 44.4462 19.1092 45.2693 19.1092H94.6539C95.3124 19.1092 95.9708 18.7215 95.9708 18.0754C95.9708 17.4292 95.3124 17.0415 94.6539 17.0415Z" fill="#C4A15E"/>
<path d="M88.0693 37.7185H68.3155C67.657 37.7185 66.9985 38.1062 66.9985 38.7523C66.9985 39.3985 67.4924 39.7862 68.3155 39.7862H88.0693C88.7278 39.7862 89.3862 39.3985 89.3862 38.7523C89.3862 38.1062 88.7278 37.7185 88.0693 37.7185Z" fill="#C4A15E"/>
<path d="M88.0693 45.4723H68.3155C67.657 45.4723 66.9985 45.86 66.9985 46.5062C66.9985 47.1523 67.4924 47.54 68.3155 47.54H88.0693C88.7278 47.54 89.3862 47.1523 89.3862 46.5062C89.3862 45.86 88.7278 45.4723 88.0693 45.4723Z" fill="#C4A15E"/>
<path d="M88.0694 53.2262H51.854C51.1956 53.2262 50.5371 53.6138 50.5371 54.26C50.5371 54.9062 51.031 55.2938 51.854 55.2938H88.0694C88.7279 55.2938 89.3863 54.9062 89.3863 54.26C89.3863 53.6138 88.7279 53.2262 88.0694 53.2262Z" fill="#C4A15E"/>
<path d="M88.0694 60.98H51.854C51.1956 60.98 50.5371 61.3677 50.5371 62.0138C50.5371 62.66 51.031 63.0477 51.854 63.0477H88.0694C88.7279 63.0477 89.3863 62.66 89.3863 62.0138C89.3863 61.3677 88.7279 60.98 88.0694 60.98Z" fill="#C4A15E"/>
<path d="M44.7755 35.78V35.6508C44.7755 35.6508 44.7755 35.5215 44.6109 35.5215L44.4463 35.3923H44.2817L44.1171 35.2631C44.1171 35.2631 43.9525 35.2631 43.7878 35.2631H43.6232H13.9925C13.334 35.2631 12.6755 35.6508 12.6755 36.2969V64.7277C12.6755 64.8569 12.6755 64.8569 12.6755 64.9862V65.1154C12.6755 65.1154 12.6755 65.2446 12.8402 65.2446C13.0048 65.1154 13.1694 65.1154 13.1694 65.2446C13.1694 65.2446 13.334 65.2446 13.334 65.3738C13.334 65.3738 13.4986 65.3738 13.4986 65.5031C13.6632 65.5031 13.8278 65.6323 13.9925 65.6323H43.6232C44.2817 65.6323 44.9402 65.2446 44.9402 64.5985V36.1677C44.7755 35.9092 44.7755 35.9092 44.7755 35.78ZM40.9894 37.0723L15.3094 61.7554V37.0723H40.9894ZM16.6263 63.5646L42.4709 38.8815V63.5646H16.6263Z" fill="#C4A15E"/>
<path d="M0.823091 58.9123C0.987707 58.9123 1.15232 58.9123 1.31694 58.7831C1.48155 58.7831 1.64617 58.7831 1.64617 58.6538C1.81078 58.3954 1.9754 58.2662 1.9754 58.0077C1.9754 57.8785 1.9754 57.7492 1.81078 57.62C1.64617 57.4908 1.81078 57.3615 1.64617 57.3615C1.15232 56.9738 0.329245 56.9738 -0.164601 57.3615C-0.329216 57.4908 -0.329216 57.62 -0.493832 57.62C-0.493832 57.7492 -0.658447 57.8785 -0.658447 58.0077C-0.658447 58.2662 -0.493832 58.5246 -0.329216 58.6538C0.16463 58.9123 0.49386 58.9123 0.823091 58.9123Z" fill="#C4A15E"/>
</g>
<defs>
<clipPath id="clip0">
<rect width="107" height="84" fill="white" transform="translate(0 0.5)"/>
</clipPath>
</defs>
</svg>
